<svg xmlns="http://www.w3.org/2000/svg" xmlns:xlink="http://www.w3.org/1999/xlink" viewBox="0 0 350 350"><defs><g id="a"><path d="M392 0H88C66 0 48 18 48 40v216c0 22 18 40 40 40h109l-11 40h-26v16h160v-16h-26l-11-40h109c22 0 40-18 40-40V40c0-22-18-40-40-40zM203 336l11-40h52l11 40h-74zm213-80c0 13-11 24-24 24H88c-13 0-24-11-24-24v-16h352v16zm0-32H64V40c0-13 11-24 24-24h304c13 0 24 11 24 24v184zM304 368H80c-4 0-8 4-8 8v96c0 4 4 8 8 8h224c4 0 8-4 8-8v-96c0-4-4-8-8-8zm-8 96H88v-80h208v80z" transform="matrix(.125 0 0 .125 75 275)"/><path d="M104 432h16v16h-16zm0-32h16v16h-16zm32 0h16v16h-16zm32 0h16v16h-16zm64 0h16v16h-16zm-32 0h16v16h-16zm64 32h16v16h-16zm0-32h16v16h-16zm-128 32h112v16H136zm232-64c-22 0-40 18-40 40v32a40 40 0 0 0 80 0v-32c0-22-18-40-40-40zm24 72a24 24 0 1 1-48 0v-32a24 24 0 1 1 48 0v32z" transform="matrix(.125 0 0 .125 75 275)"/><path d="M360 400h16v16h-16z" transform="matrix(.125 0 0 .125 75 275)"/><path d="M181 120h116v15H181z" transform="rotate(-74 250 104) scale(.125)"/><path d="M197 94l-10-12-48 40a8 8 0 0 0 0 12l48 40 10-12-41-34 41-34zm145 29l-1-1-48-40-10 12 41 34-41 34 10 12 48-40c4-3 4-8 1-11z" transform="matrix(.125 0 0 .125 75 275)"/></g><g id="c"><path d="M188 87c-1-9-5-15-6-18 1-17-3-30-10-38-6-6-13-8-17-9-5-11-15-13-20-13-11-10-21-10-27-8L98 5l-9-4c-7-2-16-2-27 8-5 0-15 2-20 13-4 1-11 3-17 9-7 8-11 21-10 38-1 3-5 9-6 18s1 22 15 33c-1 10 0 27 16 35 0 4-1 10 2 15s7 7 13 9c3 4 13 18 25 18 7 0 13-4 18-12 6 8 12 12 18 12 13 0 23-14 26-18 6-2 10-4 13-9s2-11 2-15c16-8 17-25 15-35 15-11 17-24 16-33zm-21 28l-2 4c1 1 6 23-14 31-1 1-2 3-1 4 0 0 2 8-1 13-2 3-5 4-10 5l-2 2c-3 4-11 16-20 16-6 0-11-4-15-13l-4-2c-2 0-2 1-3 2-4 9-9 13-15 13-8 0-17-12-20-16l-3-2c-4-1-7-2-9-5-3-5-1-13-1-13 1-1 0-3-1-4-20-8-15-30-14-31l-2-4c-25-17-9-42-9-43l1-2c-1-16 2-27 8-34s14-7 14-7c2 0 3-1 3-2 4-10 10-11 13-11h2l4-1c7-7 14-9 21-8l9 5 2 1h1l2-1s3-3 9-5c7-1 14 1 21 8l3 1c1 0 11-2 16 11 0 1 1 2 3 2 0 0 8 0 14 7s9 18 8 34v2s5 7 6 15c1 12-3 21-14 28z" transform="translate(92 27) scale(.30471)"/><path d="M156 25l-4-3c-22 7-22 25-22 26 0 2 2 3 3 3 2 0 4-1 4-3 0-1 0-14 17-19l2-4zm15 91c-1-1-3-2-5-1-5 5-10 6-14 5-8-2-12-13-12-13a3 3 0 0 0-7 3c1 0 6 13 17 16l5 1c5 0 10-2 16-6v-5zm-57 3a3 3 0 1 0-5 5c11 11 9 21 8 22a3 3 0 0 0 7 2c0-1 4-15-10-29zm53-32c-1-2-3-3-5-2-1 0-17 6-25-6-5-6-7-11-8-15-2-5-4-10-10-10a3 3 0 0 0-1 7c2 0 2 1 4 5 2 5 4 11 9 17 6 8 14 10 21 10s12-2 12-2c2 0 3-2 3-4zM98 6c-1 0-3 2-3 4v169a3 3 0 0 0 7 0V10c0-2-2-4-4-4z" transform="translate(92 27) scale(.30471)"/><path d="M123 36c0-2-1-4-3-4s-4 2-3 4c0 0 0 21-11 35a3 3 0 1 0 5 4c13-15 12-38 12-39zm7 104c-15 0-22 21-22 22a3 3 0 0 0 6 2c2-5 8-17 16-17a3 3 0 0 0 0-7zm4-131h-5l-8 11a3 3 0 0 0 6 4l8-11c1-1 1-3-1-4zM64 31a14 14 0 1 0 0 27 14 14 0 0 0 0-27zm0 20a7 7 0 1 1 0-13 7 7 0 0 1 0 13zM40 75a14 14 0 1 0 0 27 14 14 0 0 0 0-27zm0 21a7 7 0 1 1 0-14 7 7 0 0 1 0 14zm34 10a14 14 0 1 0 1 27 14 14 0 0 0-1-27zm0 20a7 7 0 1 1 1-13 7 7 0 0 1-1 13zm0 17a14 14 0 1 0 1 28 14 14 0 0 0-1-28zm0 21a7 7 0 1 1 1-14 7 7 0 0 1-1 14z" transform="translate(92 27) scale(.30471)"/><path d="M64 51c-2 0-3 2-3 4v34a3 3 0 0 0 7 0V55c0-2-2-4-4-4z" transform="translate(92 27) scale(.30471)"/><path d="M74 85H51a3 3 0 0 0 0 7h23a3 3 0 0 0 0-7z" transform="translate(92 27) scale(.30471)"/><path d="M74 85c-1 0-3 2-3 4v20a3 3 0 0 0 7 0V89c0-2-2-4-4-4zm0 41c-1 0-3 2-3 4v17a3 3 0 0 0 7 0v-17c0-2-2-4-4-4z" transform="translate(92 27) scale(.30471)"/></g><g id="e" transform="translate(122 199) scale(.12765)"><path d="M378 190V75a23 23 0 0 0-3-45H275a23 23 0 0 0-2 45v115c-23 9-43 23-59 42a7 7 0 1 0 11 10c16-19 35-32 57-40 4-1 6-4 6-7V75h42a8 8 0 0 0 0-15h-55a8 8 0 0 1 0-15h100a8 8 0 0 1 0 15h-15a8 8 0 0 0 0 15h3v120c0 3 2 6 5 7a130 130 0 1 1-92 243 7 7 0 1 0-6 14 145 145 0 0 0 107-270z"/><circle cx="380" cy="351" r="7"/><circle cx="350" cy="381" r="7"/><path d="M283 416a8 8 0 0 0-7 13 115 115 0 0 0 148-162c-1-2-4-4-7-3h-4c-11 4-17 9-22 13s-9 7-19 7c-9 0-13-4-19-8-6-6-14-12-28-12s-22 6-28 12c-6 4-10 8-19 8-10 0-13-3-19-7-5-4-11-9-22-13h-4a7 7 0 0 0-8 4 8 8 0 0 0 8 11c8 2 12 6 17 9 6 5 13 11 28 11s23-7 29-12c5-5 9-8 18-8s13 3 18 8c7 5 14 12 29 12s22-6 28-11c4-3 8-6 14-8a100 100 0 0 1-131 136z"/><path d="M181 194V45a23 23 0 0 0-2-45H79a23 23 0 0 0-3 45v120a8 8 0 0 0 15 0V45h43a8 8 0 0 0 0-15H79a8 8 0 0 1 0-15h100a8 8 0 0 1 0 15h-15a8 8 0 0 0 0 15h2v153l73 210c5 13 4 25-2 34-7 8-18 13-31 13H51c-13 0-24-5-30-13-7-9-8-21-3-34l73-210a8 8 0 0 0-15-5L4 403c-6 18-5 34 4 47s25 20 43 20h155c18 0 34-7 43-20s11-29 5-47l-73-209z"/><path d="M65 349a7 7 0 0 0-12 3l-21 61c-3 8-3 15 1 20 3 4 10 7 18 7h155c9 0 15-3 18-7 4-5 4-12 1-20l-21-61a7 7 0 0 0-12-3c-4 3-8 5-17 5s-13-3-18-8c-6-5-14-12-28-12-15 0-23 7-29 12-5 5-9 8-18 8s-13-2-17-5zm45 9c6-5 10-9 19-9 8 0 12 4 18 9s14 11 28 11c8 0 14-1 18-3l18 52 1 6-6 1H51l-6-1 1-6 18-52c4 2 10 3 18 3 14 0 22-6 28-11z"/></g><path id="g" d="M240 0a48 48 0 1 0 0 96 48 48 0 0 0 0-96zm0 80a32 32 0 1 1 0-64 32 32 0 0 1 0 64zm32 24h-2l-2 1c-17 9-39 9-56 0l-2-1h-2c-22 0-40 18-40 40v48c0 13 11 24 24 24h96c13 0 24-11 24-24v-48c0-22-18-40-40-40zm24 88c0 4-4 8-8 8h-96c-4 0-8-4-8-8v-48c0-13 10-23 22-24 22 10 46 10 68 0 12 1 22 11 22 24v48zm112 72a48 48 0 1 0 0 96 48 48 0 0 0 0-96zm0 80a32 32 0 1 1 0-64 32 32 0 0 1 0 64zm32 24h-2l-2 1c-17 9-39 9-56 0l-2-1h-2c-22 0-40 18-40 40v48c0 13 11 24 24 24h96c13 0 24-11 24-24v-48c0-22-18-40-40-40zm24 88c0 4-4 8-8 8h-96c-4 0-8-4-8-8v-48c0-13 10-23 22-24 22 10 46 10 68 0 12 1 22 11 22 24v48zM72 264a48 48 0 1 0 0 96 48 48 0 0 0 0-96zm0 80a32 32 0 1 1 0-64 32 32 0 0 1 0 64zm32 24h-2l-2 1c-17 9-39 9-56 0l-2-1h-2c-22 0-40 18-40 40v48c0 13 11 24 24 24h96c13 0 24-11 24-24v-48c0-22-18-40-40-40zm24 88c0 4-4 8-8 8H24c-4 0-8-4-8-8v-48c0-13 10-23 22-24 22 10 46 10 68 0 12 1 22 11 22 24v48zm191-50c-1-4-6-6-10-4-36 15-76 18-114 8l7-2a8 8 0 1 0-4-16l-32 10h-1l-2 1v1a8 8 0 0 0-3 6l1 3 16 31a8 8 0 1 0 14-8l-6-12c43 13 89 10 130-7 4-2 6-7 4-11zm135-196c-3-3-9-3-12 0l-11 12c-7-70-51-131-116-159a8 8 0 1 0-6 15c58 25 98 79 106 141l-9-9a8 8 0 0 0-12 12l24 24c3 3 9 3 12 0l24-24c3-3 3-9 0-12zM176 69v-1h-1v-2l-1-1-2-1-1-1-32-14a8 8 0 0 0-6 14l16 8C87 104 48 169 48 240a8 8 0 0 0 16 0c0-62 33-120 87-152l-6 13a8 8 0 0 0 14 6l16-33 1-2v-3z" transform="matrix(.125 0 0 .125 268 152)"/><g id="i"><path d="M404 315c-10-21-46-50-80-78-20-15-38-30-50-42-3-3-7-4-11-2l-15 6-14 4c-4 0-6 2-8 4-15 23-31 21-41 18l-5-4c-2-10 9-32 24-46 35-35 53-43 90-27 43 20 86 35 86 35a11 11 0 1 0 7-20c0-1-42-15-84-34-49-22-76-8-114 31-15 14-34 44-29 66 2 9 8 16 18 19 24 8 46 0 63-22 6-1 10-2 16-5l7-3c12 12 29 25 46 39 31 25 67 54 75 71 4 8 0 13-3 16-4 3-10 4-13 2a11 11 0 0 0-17 10c1 7-5 11-8 12-7 4-14 3-17 1-3-3-7-4-11-3-4 2-6 5-7 9 0 7-5 14-12 17-3 1-8 2-12-2-3-3-7-4-10-3-4 1-6 4-8 7 0 1-1 4-11 4-7 0-20-5-26-9-8-5-55-40-95-74a422 422 0 0 1-43-43c-4-4-11-3-15 1-4 5-3 12 1 15l17 17 26 26c40 33 88 69 97 76 8 5 25 12 38 12 11 0 19-2 24-7 8 3 16 3 24 0 10-4 18-12 23-21 8 2 18 1 26-4 9-4 15-11 18-18 9 0 18-3 25-9 12-11 15-27 8-42z" transform="translate(288 68) scale(.11719)"/><path d="M213 139h-96a11 11 0 0 0 0 21h96a11 11 0 0 0 0-21zm223 154c-4-5-10-7-15-3l-31 21a11 11 0 0 0 11 17l32-20c5-4 6-10 3-15zm-67 51l-63-63c-4-5-10-5-15-1-4 4-4 11 0 15 5 6 54 57 65 65a11 11 0 0 0 15-1c4-5 3-12-2-15zm-42 21c-13-10-45-44-52-52a11 11 0 0 0-16 14c0 1 39 42 54 55a11 11 0 0 0 15-2c4-5 3-11-1-15zm-43 21c-15-12-46-45-52-52a11 11 0 1 0-16 15c9 9 39 41 54 54a11 11 0 0 0 16-1c3-5 3-12-2-16z" transform="translate(288 68) scale(.11719)"/><path d="M125 120c-19-17-92-23-114-24a11 11 0 0 0-11 11v192c0 6 5 10 11 10h64c4 0 8-3 10-7 1-5 38-118 43-173 0-3-1-7-3-9zM67 288H21V118c35 3 72 9 85 15-6 47-31 130-39 155zm434-171c-83 0-130 22-132 23-3 1-5 3-6 6s0 6 2 9c13 21 54 139 62 168 1 4 6 8 10 8h64c6 0 11-5 11-11V128c0-6-5-11-11-11zm-10 192h-46c-10-33-40-118-56-154 16-6 51-15 102-16v170z" transform="translate(288 68) scale(.11719)"/></g><g id="k" transform="translate(159 114) scale(.11719)"><path d="M488 492h-22V174c0-15-12-27-26-27h-49c-15 0-27 12-27 27v318h-56V318c0-15-12-27-27-27h-49c-15 0-27 12-27 27v174h-55v-90c0-15-13-27-27-27H74c-15 0-27 12-27 27v90H24a10 10 0 1 0 0 20h464a10 10 0 1 0 0-20zm-358 0H67v-90c0-4 3-7 7-7h49c3 0 7 3 7 7v90zm158 0h-63V318c0-4 3-7 7-7h49c4 0 7 3 7 7v174zm158 0h-62V174c0-4 3-7 7-7h49c3 0 6 3 6 7v318zm20-481a10 10 0 0 0-10-11h-61a10 10 0 1 0 0 20h37l-99 99-37-37a10 10 0 0 0-14 0L102 261a10 10 0 0 0 14 14l173-172 37 37c4 4 11 4 15 0L446 34v34a10 10 0 1 0 20 0V11z"/><circle cx="75" cy="303" r="10"/></g><g id="m"><path d="M360 4H8c-4 0-8 4-8 8v456c0 4 4 8 8 8h352c4 0 8-4 8-8V12c0-4-4-8-8-8zm-8 456H16V20h336v440z" transform="matrix(.125 0 0 .125 29 126)"/><path d="M224 84h-80a8 8 0 0 0 0 16h80a8 8 0 0 0 0-16zm-104 96H72a8 8 0 0 0 0 16h48a8 8 0 0 0 0-16zm208 0H152a8 8 0 0 0 0 16h176a8 8 0 0 0 0-16zm0 32H40a8 8 0 0 0 0 16h288a8 8 0 0 0 0-16zm-80 32H40a8 8 0 0 0 0 16h208a8 8 0 0 0 0-16zm80 0h-48a8 8 0 0 0 0 16h48a8 8 0 0 0 0-16zm0 32H184a8 8 0 0 0 0 16h144a8 8 0 0 0 0-16zm-176 0H40a8 8 0 0 0 0 16h112a8 8 0 0 0 0-16zm176 32h-32a8 8 0 0 0 0 16h32a8 8 0 0 0 0-16zm-248 0H40a8 8 0 0 0 0 16h40a8 8 0 0 0 0-16zm184 0H112a8 8 0 0 0 0 16h152a8 8 0 0 0 0-16zm56 96H208a8 8 0 0 0 0 16h112a8 8 0 0 0 0-16zM256 52H112a8 8 0 0 0 0 16h144a8 8 0 0 0 0-16zm216 24h-24a32 32 0 0 0-64 0v288c0 23 9 44 25 60l1 2c3 3 9 3 12 0l1-2c16-16 25-37 25-60V92h16v72h16V84c0-4-4-8-8-8zm-56 332c-9-10-14-23-16-36h32c-2 13-7 26-16 36zm16-52h-32V92h32v264zM400 76a16 16 0 1 1 32 0h-32zm-72 56h-96a8 8 0 0 0 0 16h96a8 8 0 0 0 0-16zM216 340H40a8 8 0 0 0 0 16h176a8 8 0 0 0 0-16z" transform="matrix(.125 0 0 .125 29 126)"/></g><g id="o"><path d="M424 85l-16-48a8 8 0 0 0-12-4l-48 24a8 8 0 0 0 8 14l26-13A380 380 0 0 1 56 264v16c139 0 272-85 342-219l10 30a8 8 0 0 0 16-6z" transform="matrix(.125 0 0 .125 200 8)"/><path d="M472 0H8C4 0 0 4 0 8v360c0 4 4 8 8 8h141l-29 94a8 8 0 1 0 16 4l15-50h178l15 50a8 8 0 1 0 16-4l-29-94h141c4 0 8-4 8-8V8c0-4-4-8-8-8zM156 408l10-32h148l10 32H156zm308-48H16V16h448v344z" transform="matrix(.125 0 0 .125 200 8)"/><path d="M96 296H64c-4 0-8 4-8 8v32c0 4 4 8 8 8h32c4 0 8-4 8-8v-32c0-4-4-8-8-8zm-8 32H72v-16h16v16zm88-48h-32c-4 0-8 4-8 8v48c0 4 4 8 8 8h32c4 0 8-4 8-8v-48c0-4-4-8-8-8zm-8 48h-16v-32h16v32zm88-80h-32c-4 0-8 4-8 8v80c0 4 4 8 8 8h32c4 0 8-4 8-8v-80c0-4-4-8-8-8zm-8 80h-16v-64h16v64zm88-128h-32c-4 0-8 4-8 8v128c0 4 4 8 8 8h32c4 0 8-4 8-8V208c0-4-4-8-8-8zm-8 128h-16V216h16v112zm88-216h-32c-4 0-8 4-8 8v216c0 4 4 8 8 8h32c4 0 8-4 8-8V120c0-4-4-8-8-8zm-8 216h-16V128h16v200z" transform="matrix(.125 0 0 .125 200 8)"/></g><g id="q"><path d="M480 131a32 32 0 0 0-62-6l-98-9c0-5-1-10-4-15l71-45a32 32 0 1 0-9-14l-70 46a48 48 0 0 0-80 13l-84-20a72 72 0 1 0-74 63l7 90a48 48 0 0 0-11 88l-31 94h-3a32 32 0 1 0 18 5l31-94h15l31 94a32 32 0 1 0 17-5h-2l-31-94a48 48 0 0 0-18-90l-7-89c25-5 45-23 54-46l85 20-1 3a48 48 0 0 0 95 12l98 9a32 32 0 0 0 63-10zM408 16a16 16 0 1 1 0 32 16 16 0 0 1 0-32zM32 464a16 16 0 1 1 0-32 16 16 0 0 1 0 32zm112-32a16 16 0 1 1 0 32 16 16 0 0 1 0-32zM88 248a32 32 0 1 1 0 64 32 32 0 0 1 0-64zM72 128a56 56 0 1 1 0-112 56 56 0 0 1 0 112zm200 24a32 32 0 1 1 0-64 32 32 0 0 1 0 64zm176 0a16 16 0 1 1 0-32 16 16 0 0 1 0 32z" transform="translate(228 268) scale(.1249)"/><path d="M419 337a72 72 0 0 0-78 45l-69-18v-4c0-11-4-22-11-31l45-52c5 2 9 3 14 3a32 32 0 1 0-26-14l-45 53c-7-5-16-7-25-7h-2l-15-68a32 32 0 1 0-16 4l15 68a48 48 0 1 0 62 64l69 18a72 72 0 1 0 82-61zm-99-105a16 16 0 1 1 0 32 16 16 0 0 1 0-32zm-128 0a16 16 0 1 1 0-32 16 16 0 0 1 0 32zm32 160a32 32 0 1 1 0-64 32 32 0 0 1 0 64zm184 72a56 56 0 1 1 0-112 56 56 0 0 1 0 112z" transform="translate(228 268) scale(.1249)"/></g><g id="s"><path d="M212 316c13-13 22-31 22-51v-40c6-8 10-18 10-29v-41c0-5-5-10-10-10h-83c-33 0-60 27-60 61v59c0 20 8 38 22 51-56 2-101 48-101 104v82c0 6 5 10 10 10h280c6 0 10-4 10-10v-82c0-56-45-102-100-104zm-61-151h73v31c0 16-13 29-29 29h-84v-19c0-22 18-41 40-41zm-40 100v-20h84c7 0 13-2 19-4v24a52 52 0 0 1-103 0zm92 71l-39 66-39-66h78zm89 156h-22v-70a10 10 0 1 0-20 0v70H78v-70a10 10 0 1 0-20 0v70H32v-72c0-41 30-76 70-83l53 90c2 3 5 5 9 5s6-2 8-5l53-89c38 8 67 42 67 82v72z" transform="translate(-12 252) scale(.11719)"/><path d="M450 0h-57a10 10 0 1 0 0 20h57c16 0 30 13 30 30v134c0 17-14 30-30 30h-37c-2 0-5 1-7 3l-47 47v-40c0-6-4-10-10-10h-85a10 10 0 1 0 0 20h75v54a10 10 0 0 0 17 7l61-61h33c27 0 50-22 50-50V50c0-28-23-50-50-50zm-86 3c-2-2-5-3-7-3s-5 1-7 3-3 4-3 7 1 5 3 7 4 3 7 3 5-1 7-3 3-4 3-7-1-5-3-7zm-44-3h-56c-28 0-50 22-50 50v55a10 10 0 1 0 20 0V50c0-17 13-30 30-30h56a10 10 0 1 0 0-20zm-94 427h-14a10 10 0 1 0 0 20h14a10 10 0 1 0 0-20zm-80-165a10 10 0 0 0-15 0l-2 7 2 7a10 10 0 0 0 15 0l3-7-3-7zm47 0a10 10 0 0 0-14 0 10 10 0 1 0 14 0z" transform="translate(-12 252) scale(.11719)"/><path d="M394 89a37 37 0 0 0-74 3 10 10 0 1 0 20 0c0-5 2-9 5-12 4-4 8-5 13-5a17 17 0 0 1 3 34c-9 2-14 9-14 17v20a10 10 0 1 0 20 0v-18c17-5 28-21 27-39zm-30 83c-2-2-5-3-7-3s-5 1-7 3-3 4-3 7 1 5 3 7 4 3 7 3 5-1 7-3 3-4 3-7-1-5-3-7z" transform="translate(-12 252) scale(.11719)"/></g><g id="u"><path d="M484 282A184 184 0 0 0 232 27a10 10 0 1 0 10 17 164 164 0 0 1 222 232c-2 3-2 8 0 11l11 41-44-12c-3-1-6 0-8 2a163 163 0 0 1-152 20c-13-47-50-84-97-97a163 163 0 0 1 15-143 10 10 0 0 0-17-11 184 184 0 0 0-20 150l-14-1A138 138 0 0 0 23 450l-11 40a10 10 0 0 0 12 12l41-11a137 137 0 0 0 147 0 10 10 0 0 0-11-17 118 118 0 0 1-128-2c-3-1-6-2-9-1l-28 8 7-28c1-3 1-6-1-9a118 118 0 1 1 207-28 10 10 0 1 0 19 7 138 138 0 0 0 7-61 184 184 0 0 0 156-23l56 15a10 10 0 0 0 12-12l-15-58z" transform="translate(-1 -6) scale(.11719)"/><path d="M380 205H278c-6 0-10 5-10 10a61 61 0 0 0 122 0c0-5-5-10-10-10zm-51 51c-19 0-36-13-40-31h79c-4 18-20 31-39 31zm77-106c-2-5-9-6-13-3h-2a10 10 0 1 0 11 17h1c5-3 6-9 3-14zm-137 0c-3-5-9-6-14-3h-1a10 10 0 1 0 11 17h1c5-3 6-9 3-14zM90 367a10 10 0 0 0-14 0 10 10 0 0 0 0 14 10 10 0 0 0 14 0 10 10 0 0 0 0-14zm55 0a10 10 0 0 0-14 0 10 10 0 0 0 0 14 10 10 0 0 0 14 0 10 10 0 0 0 0-14zm55 0c-2-2-4-3-7-3s-5 1-7 3a10 10 0 0 0 0 14c2 2 4 3 7 3s5-1 7-3 3-4 3-7-1-5-3-7zm45 80a10 10 0 0 0-14 0 10 10 0 0 0 0 14 10 10 0 0 0 14 0 10 10 0 0 0 0-14zM212 54a10 10 0 0 0-14 0 10 10 0 0 0 0 14 10 10 0 0 0 14 0 10 10 0 0 0 0-14z" transform="translate(-1 -6) scale(.11719)"/></g></defs><g fi:class="KUsePattern"><pattern id="b" width="350" height="350" patternUnits="userSpaceOnUse"><use x="-350" y="-350" xlink:href="#a"/><use y="-350" xlink:href="#a"/><use x="350" y="-350" xlink:href="#a"/><use x="-350" xlink:href="#a"/><use xlink:href="#a"/><use x="350" xlink:href="#a"/><use x="-350" y="350" xlink:href="#a"/><use y="350" xlink:href="#a"/><use x="350" y="350" xlink:href="#a"/></pattern><rect width="100%" height="100%" fill="url(#b)"/></g><g fi:class="KUsePattern"><pattern id="d" width="350" height="350" patternUnits="userSpaceOnUse"><use x="-350" y="-350" xlink:href="#c"/><use y="-350" xlink:href="#c"/><use x="350" y="-350" xlink:href="#c"/><use x="-350" xlink:href="#c"/><use xlink:href="#c"/><use x="350" xlink:href="#c"/><use x="-350" y="350" xlink:href="#c"/><use y="350" xlink:href="#c"/><use x="350" y="350" xlink:href="#c"/></pattern><rect width="100%" height="100%" fill="url(#d)"/></g><g fi:class="KUsePattern"><pattern id="f" width="350" height="350" patternUnits="userSpaceOnUse"><use x="-350" y="-350" xlink:href="#e"/><use y="-350" xlink:href="#e"/><use x="350" y="-350" xlink:href="#e"/><use x="-350" xlink:href="#e"/><use xlink:href="#e"/><use x="350" xlink:href="#e"/><use x="-350" y="350" xlink:href="#e"/><use y="350" xlink:href="#e"/><use x="350" y="350" xlink:href="#e"/></pattern><rect width="100%" height="100%" fill="url(#f)"/></g><g fi:class="KUsePattern"><pattern id="h" width="350" height="350" patternUnits="userSpaceOnUse"><use x="-350" y="-350" xlink:href="#g"/><use y="-350" xlink:href="#g"/><use x="350" y="-350" xlink:href="#g"/><use x="-350" xlink:href="#g"/><use xlink:href="#g"/><use x="350" xlink:href="#g"/><use x="-350" y="350" xlink:href="#g"/><use y="350" xlink:href="#g"/><use x="350" y="350" xlink:href="#g"/></pattern><rect width="100%" height="100%" fill="url(#h)"/></g><g fi:class="KUsePattern"><pattern id="j" width="350" height="350" patternUnits="userSpaceOnUse"><use x="-350" y="-350" xlink:href="#i"/><use y="-350" xlink:href="#i"/><use x="350" y="-350" xlink:href="#i"/><use x="-350" xlink:href="#i"/><use xlink:href="#i"/><use x="350" xlink:href="#i"/><use x="-350" y="350" xlink:href="#i"/><use y="350" xlink:href="#i"/><use x="350" y="350" xlink:href="#i"/></pattern><rect width="100%" height="100%" fill="url(#j)"/></g><g fi:class="KUsePattern"><pattern id="l" width="350" height="350" patternUnits="userSpaceOnUse"><use x="-350" y="-350" xlink:href="#k"/><use y="-350" xlink:href="#k"/><use x="350" y="-350" xlink:href="#k"/><use x="-350" xlink:href="#k"/><use xlink:href="#k"/><use x="350" xlink:href="#k"/><use x="-350" y="350" xlink:href="#k"/><use y="350" xlink:href="#k"/><use x="350" y="350" xlink:href="#k"/></pattern><rect width="100%" height="100%" fill="url(#l)"/></g><g fi:class="KUsePattern"><pattern id="n" width="350" height="350" patternUnits="userSpaceOnUse"><use x="-350" y="-350" xlink:href="#m"/><use y="-350" xlink:href="#m"/><use x="350" y="-350" xlink:href="#m"/><use x="-350" xlink:href="#m"/><use xlink:href="#m"/><use x="350" xlink:href="#m"/><use x="-350" y="350" xlink:href="#m"/><use y="350" xlink:href="#m"/><use x="350" y="350" xlink:href="#m"/></pattern><rect width="100%" height="100%" fill="url(#n)"/></g><g fi:class="KUsePattern"><pattern id="p" width="350" height="350" patternUnits="userSpaceOnUse"><use x="-350" y="-350" xlink:href="#o"/><use y="-350" xlink:href="#o"/><use x="350" y="-350" xlink:href="#o"/><use x="-350" xlink:href="#o"/><use xlink:href="#o"/><use x="350" xlink:href="#o"/><use x="-350" y="350" xlink:href="#o"/><use y="350" xlink:href="#o"/><use x="350" y="350" xlink:href="#o"/></pattern><rect width="100%" height="100%" fill="url(#p)"/></g><g fi:class="KUsePattern"><pattern id="r" width="350" height="350" patternUnits="userSpaceOnUse"><use x="-350" y="-350" xlink:href="#q"/><use y="-350" xlink:href="#q"/><use x="350" y="-350" xlink:href="#q"/><use x="-350" xlink:href="#q"/><use xlink:href="#q"/><use x="350" xlink:href="#q"/><use x="-350" y="350" xlink:href="#q"/><use y="350" xlink:href="#q"/><use x="350" y="350" xlink:href="#q"/></pattern><rect width="100%" height="100%" fill="url(#r)"/></g><g fi:class="KUsePattern"><pattern id="t" width="350" height="350" patternUnits="userSpaceOnUse"><use x="-350" y="-350" xlink:href="#s"/><use y="-350" xlink:href="#s"/><use x="350" y="-350" xlink:href="#s"/><use x="-350" xlink:href="#s"/><use xlink:href="#s"/><use x="350" xlink:href="#s"/><use x="-350" y="350" xlink:href="#s"/><use y="350" xlink:href="#s"/><use x="350" y="350" xlink:href="#s"/></pattern><rect width="100%" height="100%" fill="url(#t)"/></g><g fi:class="KUsePattern"><pattern id="v" width="350" height="350" patternUnits="userSpaceOnUse"><use x="-350" y="-350" xlink:href="#u"/><use y="-350" xlink:href="#u"/><use x="350" y="-350" xlink:href="#u"/><use x="-350" xlink:href="#u"/><use xlink:href="#u"/><use x="350" xlink:href="#u"/><use x="-350" y="350" xlink:href="#u"/><use y="350" xlink:href="#u"/><use x="350" y="350" xlink:href="#u"/></pattern><rect width="100%" height="100%" fill="url(#v)"/></g></svg>
